<svg width="150" height="150" viewBox="0 0 150 150" fill="none" xmlns="http://www.w3.org/2000/svg">
<path d="M75 6C113 6 144 37 144 75C144 113 113 144 75 144C37 144 6 113 6 75C6 37 37 6 75 6ZM75 0C33.6 0 0 33.6 0 75C0 116.4 33.6 150 75 150C116.4 150 150 116.4 150 75C150 33.6 116.4 0 75 0ZM106.5 58.3H101.8L87.4 75L101.7 91.7H106.4V105.1H76.1V91.9H80.8L71.4 81H67.5V91.9H72.8V105.2H43.5V91.7H49.9V75V58.3H43.5V44.8H50.7V49.8H54.6V44.8H61.7V49.8H65.6V44.8H72.8V58.1H67.5V69H71.4L80.8 58.1H76.1V44.8H106.5V58.3Z" fill="#FFFFFF"/>
</svg>
